<svg aria-hidden="true" style="position: absolute; width: 0; height: 0; overflow: hidden;" version="1.1" xmlns="http://www.w3.org/2000/svg" xmlns:xlink="http://www.w3.org/1999/xlink">
<defs>
<symbol id="icon-telegram" viewBox="0 0 32 32">
<path d="M16 0c8.837 0 16 7.163 16 16s-7.163 16-16 16c-8.837 0-16-7.163-16-16s7.163-16 16-16zM23.106 9.6c-0.61 0.011-1.545 0.332-6.045 2.18-1.576 0.647-4.727 1.987-9.451 4.019-0.767 0.301-1.169 0.596-1.206 0.884-0.070 0.553 0.736 0.725 1.751 1.051 0.827 0.266 1.941 0.576 2.519 0.589 0.525 0.011 1.111-0.202 1.758-0.641 4.414-2.942 6.693-4.429 6.836-4.461 0.101-0.023 0.241-0.051 0.336 0.032s0.085 0.241 0.075 0.283c-0.080 0.338-4.227 4.061-4.466 4.306l-0.114 0.115c-0.879 0.869-1.768 1.436-0.235 2.433 1.385 0.901 2.19 1.475 3.617 2.398 0.912 0.59 1.626 1.289 2.567 1.204 0.433-0.039 0.88-0.441 1.108-1.64 0.537-2.834 1.592-8.973 1.836-11.503 0.021-0.222-0.006-0.505-0.027-0.63s-0.067-0.302-0.231-0.433c-0.194-0.156-0.494-0.188-0.628-0.186z"></path></symbol>
<symbol id="icon-facebook" viewBox="0 0 32 32">
<path d="M16 0.64c-8.483 0-15.36 6.877-15.36 15.36s6.877 15.36 15.36 15.36v0c8.483 0 15.36-6.877 15.36-15.36s-6.877-15.36-15.36-15.36v0zM19.64 11.256h-2.312c-0.272 0-0.576 0.36-0.576 0.84v1.664h2.888l-0.44 2.376h-2.448v7.136h-2.72v-7.136h-2.48v-2.376h2.48v-1.4c0-2 1.384-3.632 3.296-3.632h2.312v2.528z"></path>
</symbol>
<symbol id="icon-twitter" viewBox="0 0 32 32">
<path d="M16 0.64c-8.483 0-15.36 6.877-15.36 15.36s6.877 15.36 15.36 15.36v0c8.483 0 15.36-6.877 15.36-15.36s-6.877-15.36-15.36-15.36v0zM22.248 13.224l0.008 0.392c0 4-3.040 8.608-8.608 8.608-1.64 0-3.256-0.472-4.64-1.36 0.219 0.028 0.473 0.044 0.731 0.044 1.422 0 2.729-0.49 3.762-1.31l-0.012 0.010c-1.316-0.027-2.424-0.888-2.818-2.075l-0.006-0.021c0.456 0.080 0.92 0.064 1.36-0.056-1.391-0.289-2.422-1.504-2.424-2.96v-0.040c0.408 0.224 0.88 0.36 1.376 0.376-0.817-0.55-1.348-1.471-1.348-2.517 0-0.561 0.153-1.087 0.419-1.537l-0.008 0.014c1.5 1.833 3.719 3.030 6.219 3.159l0.021 0.001c-0.048-0.202-0.076-0.434-0.076-0.673 0-1.67 1.354-3.024 3.024-3.024 0.864 0 1.643 0.362 2.195 0.943l0.001 0.001c0.724-0.147 1.367-0.402 1.947-0.751l-0.027 0.015c-0.235 0.716-0.707 1.3-1.322 1.672l-0.014 0.008c0.647-0.079 1.236-0.248 1.782-0.495l-0.038 0.015c-0.415 0.615-0.916 1.135-1.494 1.556l-0.018 0.012z"></path>
</symbol>
<symbol id="icon-instagram" viewBox="0 0 32 32">
<path d="M20.8 16c0 0.021 0 0.045 0 0.070 0 2.651-2.149 4.8-4.8 4.8s-4.8-2.149-4.8-4.8c0-0.308 0.029-0.608 0.084-0.9l-0.005 0.030h-1.68v6.4c0 0.442 0.358 0.8 0.8 0.8v0h11.2c0.442 0 0.8-0.358 0.8-0.8v0-6.4h-1.68c0.048 0.256 0.080 0.528 0.080 0.8zM16 19.2c1.767 0 3.2-1.433 3.2-3.2s-1.433-3.2-3.2-3.2v0c-1.767 0-3.2 1.433-3.2 3.2s1.433 3.2 3.2 3.2v0zM19.84 12.64h1.92c0.265 0 0.48-0.215 0.48-0.48v0-1.92c0-0.265-0.215-0.48-0.48-0.48v0h-1.92c-0.265 0-0.48 0.215-0.48 0.48v0 1.92c0 0.264 0.216 0.48 0.48 0.48zM16 0.64c-8.483 0-15.36 6.877-15.36 15.36s6.877 15.36 15.36 15.36v0c8.483 0 15.36-6.877 15.36-15.36s-6.877-15.36-15.36-15.36v0zM24 22.224c0 0.976-0.8 1.776-1.776 1.776h-12.448c-0.976 0-1.776-0.8-1.776-1.776v-12.448c0-0.976 0.8-1.776 1.776-1.776h12.448c0.976 0 1.776 0.8 1.776 1.776v12.448z"></path>
</symbol>
<symbol id="icon-youtube" viewBox="0 0 32 32">
<path d="M18.56 15.736l-3.592-1.68c-0.312-0.144-0.568 0.016-0.568 0.368v3.152c0 0.352 0.256 0.512 0.568 0.368l3.6-1.68c0.312-0.144 0.312-0.384 0-0.528zM16 0.64c-8.483 0-15.36 6.877-15.36 15.36s6.877 15.36 15.36 15.36v0c8.483 0 15.36-6.877 15.36-15.36s-6.877-15.36-15.36-15.36v0zM16 22.24c-7.864 0-8-0.712-8-6.24s0.136-6.24 8-6.24 8 0.712 8 6.24-0.136 6.24-8 6.24z"></path>
</symbol>
<symbol id="icon-close" viewBox="0 0 32 32">
<path d="M23.736 10.304l-1.504-1.504-5.968 5.96-5.96-5.96-1.504 1.504 5.96 5.96-5.96 5.976 1.504 1.504 5.96-5.968 5.968 5.968 1.504-1.504-5.968-5.968 5.968-5.96z"></path>
</symbol>
</defs>
</svg>
